<svg width="1405" height="246" viewBox="0 0 1405 246" fill="none" xmlns="http://www.w3.org/2000/svg">
<path d="M462.89 85.78C470.63 79.33 480.36 76.11 492.08 76.11C501.98 76.11 512.04 78.75 522.25 84.04C524.59 85.3 525.76 86.96 525.76 89.01C525.76 90.11 525.41 91.37 524.71 92.78L517.94 104.33C516.69 106.77 515.1 107.98 513.15 107.98C511.98 107.98 510.73 107.59 509.41 106.81C502.23 103.61 496.85 102.01 493.26 102.01C489.98 102.01 487.28 102.73 485.17 104.18C483.06 105.62 482 107.52 482 109.86C482 111.97 483.05 113.76 485.17 115.24C486.97 116.57 492.01 118.87 500.29 122.14C510.57 125.81 518.96 130.96 525.47 137.59C531.97 144.22 535.22 152.26 535.22 161.7C535.22 172.21 531.17 181.21 523.06 188.69C514.95 196.17 504.39 199.9 491.38 199.9C479.42 199.9 467.35 196.48 455.16 189.63C452.97 188.38 451.88 186.75 451.88 184.73C451.88 183.72 452.15 182.59 452.7 181.34L459.5 167.44C460.59 165.03 462.27 163.82 464.54 163.82C465.56 163.82 466.65 164.05 467.82 164.52C476.73 168.89 484.5 171.07 491.15 171.07C494.98 171.07 497.93 170.17 500 168.38C502.07 166.59 503.11 164.44 503.11 161.94C503.11 159.21 501.6 156.81 498.6 154.74C495.59 152.67 490.22 150.04 482.48 146.84C480.37 145.98 478.71 145.28 477.5 144.73C476.29 144.18 474.45 143.27 471.99 141.98C469.53 140.69 467.49 139.47 465.89 138.29C464.29 137.12 462.47 135.56 460.44 133.61C458.41 131.66 456.81 129.65 455.63 127.58C454.46 125.51 453.44 123.06 452.58 120.21C451.72 117.36 451.29 114.34 451.29 111.14C451.28 100.68 455.15 92.23 462.89 85.78Z" fill="#3A3A3A"/>
<path d="M553.97 83.96C553.97 82.01 554.54 80.48 555.68 79.39C556.82 78.3 558.37 77.75 560.33 77.75H579.04C581 77.75 582.55 78.3 583.69 79.39C584.83 80.49 585.4 82.01 585.4 83.96V147.61C585.4 153.24 587.44 158.12 591.54 162.26C595.63 166.4 600.52 168.47 606.21 168.47C611.82 168.47 616.65 166.4 620.7 162.26C624.75 158.12 626.78 153.23 626.78 147.61V83.96C626.78 82.01 627.33 80.48 628.42 79.39C629.51 78.3 631.04 77.75 632.99 77.75H651.75C653.78 77.75 655.36 78.3 656.5 79.39C657.63 80.49 658.2 82.01 658.2 83.96V147.61C658.2 161.99 653.11 174.3 642.92 184.54C632.73 194.78 620.5 199.89 606.21 199.89C591.74 199.89 579.41 194.77 569.24 184.54C559.07 174.31 553.99 162 553.99 147.61V83.96H553.97Z" fill="#3A3A3A"/>
<path d="M679.51 191.8V36.25C679.51 34.3 680.08 32.75 681.22 31.62C682.36 30.49 683.91 29.92 685.87 29.92H704.58C706.54 29.92 708.09 30.49 709.23 31.62C710.37 32.75 710.94 34.29 710.94 36.24V85.3C719.99 79.17 730.13 76.11 741.36 76.11C752.52 76.11 762.85 78.88 772.34 84.41C781.83 89.94 789.34 97.44 794.88 106.91C800.42 116.38 803.2 126.74 803.2 138C803.2 149.26 800.43 159.63 794.88 169.1C789.34 178.57 781.82 186.07 772.34 191.6C762.85 197.13 752.53 199.9 741.36 199.9C728.17 199.9 716.34 196.02 705.88 188.25V192.55C705.88 196.2 704.04 198.02 700.35 198.02H685.88C683.92 198.02 682.37 197.47 681.23 196.38C680.08 195.28 679.51 193.76 679.51 191.8ZM719.64 116.56C713.67 122.59 710.69 129.73 710.69 138C710.69 146.27 713.67 153.42 719.64 159.44C725.61 165.47 732.68 168.48 740.88 168.48C749.07 168.48 756.15 165.47 762.11 159.44C768.08 153.42 771.06 146.27 771.06 138C771.06 129.73 768.08 122.58 762.11 116.56C756.14 110.54 749.07 107.52 740.88 107.52C732.69 107.52 725.61 110.53 719.64 116.56Z" fill="#3A3A3A"/>
<path d="M823.46 151.35V46.43C823.46 44.48 824.02 42.94 825.15 41.81C826.28 40.68 827.82 40.11 829.76 40.11H848.56C850.51 40.11 852.04 40.67 853.17 41.8C854.3 42.92 854.86 44.45 854.86 46.39V77.98H885.67C889.67 77.98 891.67 80 891.67 84.04V99.59C891.67 103.63 889.67 105.65 885.67 105.65H854.86V151.57C854.86 155.92 856.27 159.52 859.09 162.35C861.91 165.18 865.48 166.6 869.79 166.6H884.49C888.64 166.6 890.72 168.67 890.72 172.81V191.8C890.72 195.94 888.65 198.01 884.51 198.01H868.8C854.58 198.01 843.46 194.03 835.45 186.08C827.47 178.13 823.46 166.55 823.46 151.35Z" fill="#3A3A3A"/>
<path d="M913.26 83.96C913.26 82.01 913.83 80.48 914.97 79.39C916.11 78.3 917.66 77.75 919.62 77.75H938.33C940.29 77.75 941.84 78.3 942.98 79.39C944.12 80.49 944.69 82.01 944.69 83.96V147.61C944.69 153.24 946.73 158.12 950.83 162.26C954.92 166.4 959.81 168.47 965.5 168.47C971.11 168.47 975.94 166.4 979.99 162.26C984.04 158.12 986.07 153.23 986.07 147.61V83.96C986.07 82.01 986.62 80.48 987.71 79.39C988.8 78.3 990.33 77.75 992.28 77.75H1011.04C1013.07 77.75 1014.65 78.3 1015.79 79.39C1016.92 80.49 1017.49 82.01 1017.49 83.96V147.61C1017.49 161.99 1012.4 174.3 1002.21 184.54C992.02 194.78 979.79 199.89 965.5 199.89C951.03 199.89 938.7 194.77 928.53 184.54C918.36 174.31 913.28 162 913.28 147.61V83.96H913.26Z" fill="#3A3A3A"/>
<path d="M1038.8 191.8V36.25C1038.8 34.3 1039.37 32.75 1040.51 31.62C1041.65 30.49 1043.2 29.92 1045.16 29.92H1063.87C1065.83 29.92 1067.38 30.49 1068.52 31.62C1069.66 32.75 1070.23 34.29 1070.23 36.24V85.3C1079.28 79.17 1089.42 76.11 1100.65 76.11C1111.81 76.11 1122.14 78.88 1131.63 84.41C1141.12 89.94 1148.63 97.44 1154.17 106.91C1159.71 116.38 1162.49 126.74 1162.49 138C1162.49 149.26 1159.72 159.63 1154.17 169.1C1148.63 178.57 1141.11 186.07 1131.63 191.6C1122.14 197.13 1111.82 199.9 1100.65 199.9C1087.46 199.9 1075.63 196.02 1065.17 188.25V192.55C1065.17 196.2 1063.33 198.02 1059.64 198.02H1045.17C1043.21 198.02 1041.66 197.47 1040.52 196.38C1039.37 195.28 1038.8 193.76 1038.8 191.8ZM1078.93 116.56C1072.96 122.59 1069.98 129.73 1069.98 138C1069.98 146.27 1072.96 153.42 1078.93 159.44C1084.9 165.47 1091.97 168.48 1100.17 168.48C1108.36 168.48 1115.44 165.47 1121.4 159.44C1127.37 153.42 1130.35 146.27 1130.35 138C1130.35 129.73 1127.37 122.58 1121.4 116.56C1115.43 110.54 1108.36 107.52 1100.17 107.52C1091.98 107.52 1084.9 110.53 1078.93 116.56Z" fill="#3A3A3A"/>
<path d="M1179.47 136.83C1179.47 119.79 1185.43 105.41 1197.35 93.69C1209.27 81.97 1223.86 76.11 1241.13 76.11C1258.01 76.11 1272.09 82.05 1283.39 93.93C1294.68 105.81 1300.91 121.71 1302.09 141.64C1302.09 141.87 1302.09 142.07 1302.09 142.23C1302.09 145.98 1300.02 147.86 1295.88 147.86H1211.6C1214.33 155.28 1218.67 160.93 1224.61 164.8C1230.55 168.67 1236.96 170.6 1243.83 170.6C1253.21 170.6 1262.39 167.37 1271.38 160.9C1272.86 160.02 1274.19 159.58 1275.37 159.58C1277.17 159.58 1278.73 160.48 1280.06 162.28L1290.61 174.7C1291.86 176.34 1292.49 177.83 1292.49 179.16C1292.49 180.8 1291.55 182.29 1289.68 183.61C1275.69 194.47 1260.22 199.9 1243.26 199.9C1231.38 199.9 1220.54 197.05 1210.73 191.34C1200.92 185.64 1193.26 177.96 1187.75 168.31C1182.23 158.65 1179.47 148.16 1179.47 136.83ZM1211.82 123.81H1268.2C1266.95 117.71 1263.8 112.56 1258.76 108.34C1253.72 104.12 1247.6 102.01 1240.42 102.01C1233.23 102.01 1226.96 104.04 1221.61 108.11C1216.26 112.17 1213 117.41 1211.82 123.81Z" fill="#3A3A3A"/>
<path d="M1331.86 85.78C1339.6 79.33 1349.33 76.11 1361.05 76.11C1370.95 76.11 1381.01 78.75 1391.22 84.04C1393.56 85.3 1394.73 86.96 1394.73 89.01C1394.73 90.11 1394.38 91.37 1393.68 92.78L1386.91 104.33C1385.66 106.77 1384.07 107.98 1382.12 107.98C1380.95 107.98 1379.7 107.59 1378.38 106.81C1371.2 103.61 1365.82 102.01 1362.23 102.01C1358.95 102.01 1356.25 102.73 1354.14 104.18C1352.03 105.62 1350.97 107.52 1350.97 109.86C1350.97 111.97 1352.02 113.76 1354.14 115.24C1355.94 116.57 1360.98 118.87 1369.26 122.14C1379.54 125.81 1387.93 130.96 1394.44 137.59C1400.94 144.22 1404.19 152.26 1404.19 161.7C1404.19 172.21 1400.14 181.21 1392.03 188.69C1383.92 196.17 1373.36 199.9 1360.35 199.9C1348.39 199.9 1336.32 196.48 1324.13 189.63C1321.94 188.38 1320.85 186.75 1320.85 184.73C1320.85 183.72 1321.12 182.59 1321.67 181.34L1328.47 167.44C1329.56 165.03 1331.24 163.82 1333.51 163.82C1334.52 163.82 1335.62 164.05 1336.79 164.52C1345.7 168.89 1353.47 171.07 1360.12 171.07C1363.95 171.07 1366.9 170.17 1368.97 168.38C1371.04 166.59 1372.08 164.44 1372.08 161.94C1372.08 159.21 1370.57 156.81 1367.57 154.74C1364.56 152.67 1359.19 150.04 1351.45 146.84C1349.34 145.98 1347.68 145.28 1346.47 144.73C1345.26 144.18 1343.42 143.27 1340.96 141.98C1338.5 140.69 1336.46 139.47 1334.86 138.29C1333.26 137.12 1331.44 135.56 1329.41 133.61C1327.38 131.66 1325.78 129.65 1324.6 127.58C1323.43 125.51 1322.41 123.06 1321.55 120.21C1320.69 117.36 1320.26 114.34 1320.26 111.14C1320.26 100.68 1324.12 92.23 1331.86 85.78Z" fill="#3A3A3A"/>
<path d="M282.99 94.95C276.01 94.95 269.26 95.92 262.84 97.7C263.31 94.06 263.58 90.35 263.58 86.59C263.58 39.28 225.23 0.919983 177.91 0.919983C130.6 0.919983 92.24 39.27 92.24 86.59C92.24 90.06 92.47 93.47 92.87 96.84C87.5 95.62 81.92 94.96 76.18 94.96C34.6 94.96 0.890015 128.67 0.890015 170.25C0.890015 195.54 13.38 217.9 32.51 231.55L21.74 242.68L65.29 210.75L131.21 162.54C129.54 143.64 136.21 127.42 151.6 114.9C169.07 100.69 188.79 98.81 209.56 107.21C210.28 107.5 210.96 107.89 211.62 108.3C212 108.54 212.3 108.91 212.62 109.21C199.4 119.99 186.41 130.58 173.25 141.32C172.04 140.13 170.62 138.74 168.91 137.06C165.53 139.89 162.26 142.64 159.25 145.16C170.81 159.39 182.26 173.49 193.98 187.93C196.87 185.36 199.98 182.6 203.49 179.48C202.55 178.06 201.38 176.32 200.48 174.95C213.71 164.19 226.81 153.54 240.18 142.67C243.03 151.4 243.37 160.62 241.29 169.8C233.33 205.04 196.57 223.47 163.48 208.82C162.47 208.37 161.6 208.11 160.78 208.03L139.06 223.86C138.7 224.14 138.35 224.43 137.99 224.7C137.63 224.98 137.22 225.26 136.78 225.51L109.27 245.56H282.99C324.57 245.56 358.28 211.85 358.28 170.27C358.28 128.66 324.57 94.95 282.99 94.95Z" fill="#E9492A"/>
</svg>
